<svg width="120" height="120" viewBox="0 0 120 120" xmlns="http://www.w3.org/2000/svg">
  <rect x="10" y="10" width="100" height="100" rx="6" fill="#f5f5f0" stroke="#333" stroke-width="1.5"/>
  <circle cx="20" cy="20" r="6" fill="#d4af37" opacity="0.5"/>
  <circle cx="100" cy="20" r="6" fill="#d4af37" opacity="0.5"/>
  <circle cx="20" cy="100" r="6" fill="#d4af37" opacity="0.5"/>
  <circle cx="100" cy="100" r="6" fill="#d4af37" opacity="0.5"/>
  <rect x="42" y="48" width="36" height="24" fill="#1a1a1a" stroke="#000" stroke-width="0.5"/>
  <text x="60" y="63" font-family="monospace" font-size="6" fill="#aaa" text-anchor="middle">AS5600</text>
  <line x1="0" y1="45" x2="20" y2="45" stroke="#888" stroke-width="2"/>
  <circle cx="20" cy="45" r="2.5" fill="#c0c0c0" stroke="#333"/>
  <text x="24" y="48" font-family="Arial" font-size="9" fill="#000">VCC</text>
  <line x1="0" y1="60" x2="20" y2="60" stroke="#888" stroke-width="2"/>
  <circle cx="20" cy="60" r="2.5" fill="#c0c0c0" stroke="#333"/>
  <text x="24" y="63" font-family="Arial" font-size="9" fill="#000">OUT</text>
  <line x1="0" y1="75" x2="20" y2="75" stroke="#888" stroke-width="2"/>
  <circle cx="20" cy="75" r="2.5" fill="#c0c0c0" stroke="#333"/>
  <text x="24" y="78" font-family="Arial" font-size="9" fill="#000">GND</text>
  <line x1="120" y1="38" x2="100" y2="38" stroke="#888" stroke-width="2"/>
  <circle cx="100" cy="38" r="2.5" fill="#c0c0c0" stroke="#333"/>
  <text x="96" y="41" font-family="Arial" font-size="9" fill="#000" text-anchor="end">DIR</text>
  <line x1="120" y1="53" x2="100" y2="53" stroke="#888" stroke-width="2"/>
  <circle cx="100" cy="53" r="2.5" fill="#c0c0c0" stroke="#333"/>
  <text x="96" y="56" font-family="Arial" font-size="9" fill="#000" text-anchor="end">SCL</text>
  <line x1="120" y1="68" x2="100" y2="68" stroke="#888" stroke-width="2"/>
  <circle cx="100" cy="68" r="2.5" fill="#c0c0c0" stroke="#333"/>
  <text x="96" y="71" font-family="Arial" font-size="9" fill="#000" text-anchor="end">SDA</text>
  <line x1="120" y1="83" x2="100" y2="83" stroke="#888" stroke-width="2"/>
  <circle cx="100" cy="83" r="2.5" fill="#c0c0c0" stroke="#333"/>
  <text x="96" y="86" font-family="Arial" font-size="9" fill="#000" text-anchor="end">GPO</text>
  <text x="60" y="100" font-family="Arial" font-size="7" fill="#555" text-anchor="middle">AS5600 Encoder</text>
</svg>
