<svg width="160" height="200" viewBox="0 0 160 200" xmlns="http://www.w3.org/2000/svg">
  <rect x="20" y="10" width="120" height="180" fill="#1a1a2e" stroke="#000" stroke-width="1.5"/>
  <circle cx="105" cy="35" r="10" fill="#888" stroke="#333" stroke-width="1"/>
  <line x1="105" y1="35" x2="111" y2="29" stroke="#222" stroke-width="1.5"/>
  <rect x="55" y="80" width="50" height="40" fill="#0a0a0a" stroke="#000" stroke-width="0.5"/>
  <text x="80" y="103" font-family="monospace" font-size="6" fill="#999" text-anchor="middle">TMC2209</text>
  <line x1="55" y1="0" x2="55" y2="10" stroke="#888" stroke-width="2"/>
  <circle cx="55" cy="10" r="2.5" fill="#c0c0c0" stroke="#333"/>
  <line x1="80" y1="0" x2="80" y2="10" stroke="#888" stroke-width="2"/>
  <circle cx="80" cy="10" r="2.5" fill="#c0c0c0" stroke="#333"/>
  <line x1="95" y1="0" x2="95" y2="10" stroke="#888" stroke-width="2"/>
  <circle cx="95" cy="10" r="2.5" fill="#c0c0c0" stroke="#333"/>
  <text x="55" y="22" font-family="Arial" font-size="6" fill="#fff" text-anchor="middle">VREF</text>
  <text x="80" y="22" font-family="Arial" font-size="6" fill="#fff" text-anchor="middle">DIAG</text>
  <text x="95" y="22" font-family="Arial" font-size="6" fill="#fff" text-anchor="middle">INDEX</text>
  <g font-family="Arial" font-size="8" fill="#fff">
    <line x1="0" y1="40" x2="20" y2="40" stroke="#888" stroke-width="2"/>
    <circle cx="20" cy="40" r="2.5" fill="#c0c0c0" stroke="#333"/>
    <text x="24" y="43">EN</text>
    <line x1="0" y1="60" x2="20" y2="60" stroke="#888" stroke-width="2"/>
    <circle cx="20" cy="60" r="2.5" fill="#c0c0c0" stroke="#333"/>
    <text x="24" y="63">MS1</text>
    <line x1="0" y1="80" x2="20" y2="80" stroke="#888" stroke-width="2"/>
    <circle cx="20" cy="80" r="2.5" fill="#c0c0c0" stroke="#333"/>
    <text x="24" y="83">MS2</text>
    <line x1="0" y1="100" x2="20" y2="100" stroke="#888" stroke-width="2"/>
    <circle cx="20" cy="100" r="2.5" fill="#c0c0c0" stroke="#333"/>
    <text x="24" y="103">SPREAD</text>
    <line x1="0" y1="120" x2="20" y2="120" stroke="#888" stroke-width="2"/>
    <circle cx="20" cy="120" r="2.5" fill="#c0c0c0" stroke="#333"/>
    <text x="24" y="123">PDN_UART</text>
    <line x1="0" y1="140" x2="20" y2="140" stroke="#888" stroke-width="2"/>
    <circle cx="20" cy="140" r="2.5" fill="#c0c0c0" stroke="#333"/>
    <text x="24" y="143">PDN_UART</text>
    <line x1="0" y1="160" x2="20" y2="160" stroke="#888" stroke-width="2"/>
    <circle cx="20" cy="160" r="2.5" fill="#c0c0c0" stroke="#333"/>
    <text x="24" y="163">STEP</text>
    <line x1="0" y1="180" x2="20" y2="180" stroke="#888" stroke-width="2"/>
    <circle cx="20" cy="180" r="2.5" fill="#c0c0c0" stroke="#333"/>
    <text x="24" y="183">DIR</text>
  </g>
  <g font-family="Arial" font-size="8" fill="#fff" text-anchor="end">
    <line x1="160" y1="40" x2="140" y2="40" stroke="#888" stroke-width="2"/>
    <circle cx="140" cy="40" r="2.5" fill="#c0c0c0" stroke="#333"/>
    <text x="136" y="43">VM</text>
    <line x1="160" y1="60" x2="140" y2="60" stroke="#888" stroke-width="2"/>
    <circle cx="140" cy="60" r="2.5" fill="#c0c0c0" stroke="#333"/>
    <text x="136" y="63">GND</text>
    <line x1="160" y1="80" x2="140" y2="80" stroke="#888" stroke-width="2"/>
    <circle cx="140" cy="80" r="2.5" fill="#c0c0c0" stroke="#333"/>
    <text x="136" y="83">M2B</text>
    <line x1="160" y1="100" x2="140" y2="100" stroke="#888" stroke-width="2"/>
    <circle cx="140" cy="100" r="2.5" fill="#c0c0c0" stroke="#333"/>
    <text x="136" y="103">M2A</text>
    <line x1="160" y1="120" x2="140" y2="120" stroke="#888" stroke-width="2"/>
    <circle cx="140" cy="120" r="2.5" fill="#c0c0c0" stroke="#333"/>
    <text x="136" y="123">M1A</text>
    <line x1="160" y1="140" x2="140" y2="140" stroke="#888" stroke-width="2"/>
    <circle cx="140" cy="140" r="2.5" fill="#c0c0c0" stroke="#333"/>
    <text x="136" y="143">M1B</text>
    <line x1="160" y1="160" x2="140" y2="160" stroke="#888" stroke-width="2"/>
    <circle cx="140" cy="160" r="2.5" fill="#c0c0c0" stroke="#333"/>
    <text x="136" y="163">VIO</text>
    <line x1="160" y1="180" x2="140" y2="180" stroke="#888" stroke-width="2"/>
    <circle cx="140" cy="180" r="2.5" fill="#c0c0c0" stroke="#333"/>
    <text x="136" y="183">GND</text>
  </g>
  <text x="80" y="195" font-family="Arial" font-size="8" fill="#fff" text-anchor="middle">TMC2209 Driver</text>
</svg>
